<svg width="41" height="24" viewBox="0 0 41 24" fill="none" xmlns="http://www.w3.org/2000/svg">
<path d="M39.4787 1.92305C37.0544 1.10955 34.6281 0.800049 32.2031 0.800049C24.505 0.799549 16.8075 3.91705 9.10938 3.91705C7.17875 3.91705 5.24938 3.72105 3.31875 3.23105C3.10187 3.17605 2.88437 3.15005 2.67188 3.15005C1.59625 3.15005 0.65625 3.81605 0.65625 4.74055V20.6035C0.65625 21.2351 1.10812 21.8335 1.83375 22.0765C4.25813 22.8905 6.68437 23.2 9.10938 23.2C16.8075 23.2 24.5056 20.0825 32.2038 20.0825C34.1344 20.0825 36.0638 20.2785 37.9944 20.7685C38.2113 20.8235 38.4288 20.8495 38.6413 20.8495C39.7169 20.8495 40.6569 20.1835 40.6569 19.259V3.39655C40.6562 2.76455 40.2044 2.16655 39.4787 1.92305ZM3.65625 5.81105C4.91375 6.06305 6.22625 6.18955 7.57625 6.25755C7.20875 7.72705 5.59375 8.83455 3.65625 8.83455V5.81105ZM3.65625 20.061V17.672C5.80437 17.672 7.5425 19.0355 7.63812 20.742C6.23 20.6515 4.91375 20.4265 3.65625 20.061ZM20.6562 16.8C17.8944 16.8 15.6562 14.6505 15.6562 12C15.6562 9.34905 17.895 7.20005 20.6562 7.20005C23.4175 7.20005 25.6562 9.34905 25.6562 12C25.6562 14.6515 23.4169 16.8 20.6562 16.8ZM37.6562 18.189C36.5612 17.9695 35.4244 17.8465 34.2612 17.767C34.6281 16.463 35.98 15.473 37.6562 15.303V18.189ZM37.6562 6.38355C35.7256 6.18805 34.2275 4.89855 34.1681 3.30605C35.3894 3.41455 36.5488 3.61755 37.6562 3.93905V6.38355Z" fill="#701DDB"/>
</svg>
