<svg width="41" height="24" viewBox="0 0 41 24" fill="none" xmlns="http://www.w3.org/2000/svg">
<path d="M39.2241 5.57442L21.7903 0.218174C20.8403 -0.0737011 19.8153 -0.0737011 18.8659 0.218174L1.43156 5.57442C-0.0396875 6.0263 -0.0396875 7.97192 1.43156 8.4238L4.47094 9.35755C3.80406 10.1819 3.39406 11.1875 3.35344 12.2888C2.75156 12.6338 2.32781 13.2563 2.32781 13.9994C2.32781 14.6732 2.68281 15.24 3.19406 15.6025L1.59844 22.7825C1.45969 23.4069 1.93469 23.9994 2.57406 23.9994H6.08094C6.72094 23.9994 7.19594 23.4069 7.05719 22.7825L5.46156 15.6025C5.97281 15.24 6.32781 14.6732 6.32781 13.9994C6.32781 13.2763 5.92344 12.6713 5.34906 12.32C5.39656 11.3813 5.87656 10.5513 6.64219 10.025L18.8653 13.7807C19.4316 13.9544 20.5178 14.1713 21.7897 13.7807L39.2241 8.42442C40.6959 7.97192 40.6959 6.02692 39.2241 5.57442ZM22.3772 15.6925C20.5941 16.24 19.0747 15.9375 18.2778 15.6925L9.21406 12.9082L8.32781 19.9994C8.32781 22.2088 13.7003 23.9994 20.3278 23.9994C26.9553 23.9994 32.3278 22.2088 32.3278 19.9994L31.4416 12.9075L22.3772 15.6925Z" fill="#701DDB"/>
</svg>
