<svg width="65" height="64" viewBox="0 0 65 64" fill="none" xmlns="http://www.w3.org/2000/svg">
<g clip-path="url(#clip0_55_132)">
<path d="M63.1063 21.3725L34.1063 5.3725C33.6551 5.12337 33.1718 4.99881 32.6563 4.99881C32.1409 4.99881 31.6576 5.12337 31.2063 5.3725L2.20632 21.3725C1.72885 21.6367 1.35154 22.0038 1.0744 22.4739C0.797262 22.9439 0.658691 23.4518 0.658691 23.9975C0.658691 24.5432 0.797261 25.0511 1.0744 25.5211C1.35154 25.9912 1.72885 26.3583 2.20632 26.6225L7.65632 29.6225V41.5625C7.65534 42.1771 7.76453 42.7714 7.9839 43.3455C8.20327 43.9195 8.51825 44.4352 8.92882 44.8925C12.3138 48.675 19.9063 55 32.6563 55C34.3494 55.0091 36.0338 54.8932 37.7097 54.6523C39.3855 54.4114 41.0344 54.0481 42.6563 53.5625V60C42.6563 60.8284 42.9492 61.5355 43.535 62.1213C44.1208 62.7071 44.8279 63 45.6563 63C46.4847 63 47.1919 62.7071 47.7776 62.1213C48.3634 61.5355 48.6563 60.8284 48.6563 60V51.03C50.105 50.2298 51.4778 49.3155 52.7746 48.2872C54.0714 47.2589 55.2745 46.1307 56.3838 44.9025C56.7944 44.4452 57.1094 43.9295 57.3287 43.3554C57.5481 42.7814 57.6573 42.1871 57.6563 41.5725V29.6325L63.1063 26.6325C63.5838 26.3683 63.9611 26.0012 64.2383 25.5311C64.5154 25.0611 64.654 24.5532 64.654 24.0075C64.654 23.4618 64.5154 22.9539 64.2383 22.4839C63.9611 22.0138 63.5838 21.6467 63.1063 21.3825V21.3725ZM32.6563 11.4275L55.4463 24L47.1563 28.575C47.1485 28.5704 47.1409 28.5657 47.1334 28.5606C47.1259 28.5556 47.1185 28.5504 47.1113 28.545L34.1113 21.3725C33.3897 20.9996 32.6403 20.931 31.863 21.1668C31.0857 21.4026 30.5007 21.876 30.1079 22.587C29.7152 23.2981 29.6259 24.0453 29.8401 24.8288C30.0544 25.6124 30.5114 26.2102 31.2113 26.6225L40.9613 31.995L32.6563 36.575L9.86632 24L32.6563 11.4275ZM32.6563 49C22.5513 49 16.4938 44.2325 13.6563 41.1825V32.9325L31.2063 42.6175C31.6576 42.8666 32.1409 42.9912 32.6563 42.9912C33.1718 42.9912 33.6551 42.8666 34.1063 42.6175L42.6563 37.91V47.2175C41.0591 47.8212 39.42 48.2729 37.739 48.5725C36.058 48.8721 34.3638 49.0146 32.6563 49ZM51.6563 41.1825C51.1964 41.6755 50.7159 42.1476 50.215 42.5989C49.714 43.0501 49.1945 43.4788 48.6563 43.885V34.5975L51.6563 32.9425V41.1825Z" fill="#701DDB"/>
</g>
<defs>
<clipPath id="clip0_55_132">
<rect width="64" height="64" fill="white" transform="translate(0.65625)"/>
</clipPath>
</defs>
</svg>
