<svg width="18" height="22" viewBox="0 0 18 22" fill="none" xmlns="http://www.w3.org/2000/svg">
<path d="M11.2895 10.2895H12.6335C13.0047 10.2895 13.3214 10.4024 13.5839 10.6281C13.8463 10.8538 13.9775 11.1263 13.9775 11.4455V17.457C13.9775 17.7762 13.8463 18.0487 13.5839 18.2744C13.3214 18.5001 13.0047 18.613 12.6335 18.613H4.56958C4.19844 18.613 3.88166 18.5001 3.61923 18.2744C3.3568 18.0487 3.22559 17.7762 3.22559 17.457V11.4455C3.22559 11.1263 3.3568 10.8538 3.61923 10.6281C3.88166 10.4024 4.19844 10.2895 4.56958 10.2895H5.91357" stroke="#4A6CF7" stroke-width="1.07519" stroke-linecap="round" stroke-linejoin="round"/>
<path d="M5.91357 13.064L8.60156 15.3761L11.2895 13.064M8.60156 6.59015V14.9137" stroke="#4A6CF7" stroke-width="1.07519" stroke-linecap="round" stroke-linejoin="round"/>
</svg>
