<svg width="48" height="24" viewBox="0 0 48 24" fill="none" xmlns="http://www.w3.org/2000/svg">
<path d="M46.6755 5.83195L25.755 0.689947C24.615 0.409747 23.385 0.409747 22.2457 0.689947L1.32449 5.83195C-0.441009 6.26575 -0.441009 8.13355 1.32449 8.56735L4.97174 9.46375C4.17149 10.2551 3.67949 11.2205 3.63074 12.2777C2.90849 12.6089 2.39999 13.2065 2.39999 13.9199C2.39999 14.5667 2.82599 15.1109 3.43949 15.4589L1.52474 22.3517C1.35824 22.9511 1.92824 23.5199 2.69549 23.5199H6.90374C7.67174 23.5199 8.24174 22.9511 8.07524 22.3517L6.16049 15.4589C6.77399 15.1109 7.19999 14.5667 7.19999 13.9199C7.19999 13.2257 6.71474 12.6449 6.02549 12.3077C6.08249 11.4065 6.65849 10.6097 7.57724 10.1045L22.245 13.7099C22.9245 13.8767 24.228 14.0849 25.7542 13.7099L46.6755 8.56795C48.4417 8.13355 48.4417 6.26635 46.6755 5.83195ZM26.4592 15.5453C24.3195 16.0709 22.4962 15.7805 21.54 15.5453L10.6635 12.8723L9.59999 19.6799C9.59999 21.8009 16.047 23.5199 24 23.5199C31.953 23.5199 38.4 21.8009 38.4 19.6799L37.3365 12.8717L26.4592 15.5453Z" fill="#4A154B"/>
</svg>
