<svg width="64" height="64" viewBox="0 0 64 64" fill="none" xmlns="http://www.w3.org/2000/svg">
<path d="M0 16C0 7.16344 7.16344 0 16 0H48C56.8366 0 64 7.16344 64 16V48C64 56.8366 56.8366 64 48 64H16C7.16344 64 0 56.8366 0 48V16Z" fill="#4A6CF7" fill-opacity="0.1"/>
<path d="M42 29.8281V42C42 42.8284 41.7071 43.5355 41.1213 44.1213C40.5355 44.7071 39.8284 45 39 45H25C24.1716 45 23.4645 44.7071 22.8787 44.1213C22.2929 43.5355 22 42.8284 22 42V22C22 21.1716 22.2929 20.4645 22.8787 19.8787C23.4645 19.2929 24.1716 19 25 19H31.1719C31.437 19 31.692 19.0508 31.937 19.1523C32.1819 19.2537 32.3981 19.3982 32.5856 19.5856L41.4144 28.4144C41.6018 28.6019 41.7463 28.8181 41.8477 29.063C41.9492 29.308 42 29.563 42 29.8281Z" stroke="#4A6CF7" stroke-width="2" stroke-linejoin="round"/>
<path d="M32 19.5V27C32 27.5523 32.1953 28.0237 32.5858 28.4142C32.9763 28.8047 33.4477 29 34 29H41.5M27 34H37M27 39H37" stroke="#4A6CF7" stroke-width="2" stroke-linecap="round" stroke-linejoin="round"/>
</svg>
