<svg width="65" height="64" viewBox="0 0 65 64" fill="none" xmlns="http://www.w3.org/2000/svg">
<path d="M0.328125 16C0.328125 7.16344 7.49157 0 16.3281 0H48.3281C57.1647 0 64.3281 7.16344 64.3281 16V48C64.3281 56.8366 57.1647 64 48.3281 64H16.3281C7.49157 64 0.328125 56.8366 0.328125 48V16Z" fill="#FFA41B" fill-opacity="0.1"/>
<path d="M44.3281 32C44.3281 25.375 38.9531 20 32.3281 20C25.7031 20 20.3281 25.375 20.3281 32C20.3281 38.625 25.7031 44 32.3281 44C38.9531 44 44.3281 38.625 44.3281 32Z" stroke="#FFA41B" stroke-width="2"/>
<path d="M29.8481 36.9025L37.0013 32.5812C37.2189 32.4486 37.3278 32.2549 37.3278 32C37.3278 31.7451 37.2189 31.5514 37.0013 31.4187L29.8481 27.0975C29.7438 27.035 29.6307 27.003 29.5091 27.0017C29.3874 27.0005 29.2737 27.0299 29.168 27.0902C29.0623 27.1505 28.9791 27.2334 28.9183 27.3388C28.8575 27.4442 28.8274 27.5577 28.8281 27.6794V36.3206C28.8274 36.4423 28.8575 36.5558 28.9183 36.6612C28.9791 36.7666 29.0623 36.8495 29.168 36.9098C29.2737 36.97 29.3874 36.9995 29.5091 36.9982C29.6307 36.9969 29.7438 36.965 29.8481 36.9025Z" fill="#FFA41B"/>
</svg>
