<svg width="65" height="64" viewBox="0 0 65 64" fill="none" xmlns="http://www.w3.org/2000/svg">
<path d="M0.65625 16C0.65625 7.16344 7.81969 0 16.6562 0H48.6562C57.4928 0 64.6562 7.16344 64.6562 16V48C64.6562 56.8366 57.4928 64 48.6562 64H16.6562C7.81969 64 0.65625 56.8366 0.65625 48V16Z" fill="#4A6CF7" fill-opacity="0.1"/>
<path d="M27.6563 45H37.6563M32.6563 45V37M40.6563 30C40.6563 26.835 40.6513 21.5856 40.6488 20C40.6488 19.7239 40.5512 19.4882 40.3559 19.2929C40.1607 19.0976 39.9249 19 39.6488 19L25.6619 19.0162C25.3864 19.0162 25.1511 19.1135 24.9559 19.308C24.7608 19.5026 24.6628 19.7376 24.6619 20.0131C24.6619 21.9244 24.6538 28.0863 24.6538 30C24.6538 34.0175 29.8413 37 32.6538 37C35.4663 37 40.6563 34.0175 40.6563 30Z" stroke="#4A6CF7" stroke-width="2" stroke-linecap="round" stroke-linejoin="round"/>
<path d="M24.6562 22H19.6562V23C19.6562 26.4513 21.7531 30 24.6562 30M40.6562 22H45.6562V23C45.6562 26.4513 43.5594 30 40.6562 30" stroke="#4A6CF7" stroke-width="2" stroke-linecap="round" stroke-linejoin="round"/>
</svg>
