<svg width="21" height="20" viewBox="0 0 21 20" fill="none" xmlns="http://www.w3.org/2000/svg">
<path d="M3.15625 12.8125C3.15625 12.6399 3.29616 12.5 3.46875 12.5H4.71875C4.89134 12.5 5.03125 12.6399 5.03125 12.8125V18.4375C5.03125 18.6101 4.89134 18.75 4.71875 18.75H3.46875C3.29616 18.75 3.15625 18.6101 3.15625 18.4375V12.8125Z" stroke="#4A6CF7" stroke-width="1.25" stroke-linejoin="round"/>
<path d="M11.9062 9.0625C11.9062 8.88991 12.0462 8.75 12.2188 8.75H13.4687C13.6413 8.75 13.7812 8.88991 13.7812 9.0625V18.4375C13.7812 18.6101 13.6413 18.75 13.4687 18.75H12.2188C12.0462 18.75 11.9062 18.6101 11.9062 18.4375V9.0625Z" stroke="#4A6CF7" stroke-width="1.25" stroke-linejoin="round"/>
<path d="M16.2812 4.6875C16.2812 4.51491 16.4212 4.375 16.5938 4.375H17.8437C18.0163 4.375 18.1562 4.51491 18.1562 4.6875V18.4375C18.1562 18.6101 18.0163 18.75 17.8437 18.75H16.5938C16.4212 18.75 16.2812 18.6101 16.2812 18.4375V4.6875Z" stroke="#4A6CF7" stroke-width="1.25" stroke-linejoin="round"/>
<path d="M7.53125 1.5625C7.53125 1.38991 7.67116 1.25 7.84375 1.25H9.09375C9.26634 1.25 9.40625 1.38991 9.40625 1.5625V18.4375C9.40625 18.6101 9.26634 18.75 9.09375 18.75H7.84375C7.67116 18.75 7.53125 18.6101 7.53125 18.4375V1.5625Z" stroke="#4A6CF7" stroke-width="1.25" stroke-linejoin="round"/>
</svg>
