<svg width="41" height="30" viewBox="0 0 41 30" fill="none" xmlns="http://www.w3.org/2000/svg">
<path d="M39.0781 25H5.32812V1.25C5.32812 0.559375 4.76875 0 4.07812 0H1.57812C0.8875 0 0.328125 0.559375 0.328125 1.25V27.5C0.328125 28.8805 1.44766 30 2.82812 30H39.0781C39.7687 30 40.3281 29.4406 40.3281 28.75V26.25C40.3281 25.5594 39.7687 25 39.0781 25ZM36.5781 2.5H27.3547C25.6844 2.5 24.8477 4.51953 26.0289 5.70078L28.5602 8.23203L22.8281 13.9648L17.0961 8.23281C16.1195 7.25625 14.5367 7.25625 13.5609 8.23281L8.19453 13.5992C7.70625 14.0875 7.70625 14.8789 8.19453 15.3672L9.96172 17.1344C10.45 17.6227 11.2414 17.6227 11.7297 17.1344L15.3281 13.5352L21.0602 19.2672C22.0367 20.2437 23.6195 20.2437 24.5953 19.2672L32.0953 11.7672L34.6266 14.2984C35.8078 15.4797 37.8273 14.643 37.8273 12.9727V3.75C37.8281 3.05938 37.2687 2.5 36.5781 2.5Z" fill="#701DDB"/>
</svg>
