<svg width="65" height="64" viewBox="0 0 65 64" fill="none" xmlns="http://www.w3.org/2000/svg">
<path d="M55.3281 24C55.3329 15.6171 51.8082 9.16123 44.7539 4.63235C37.6997 0.10347 30.3626 -0.414103 22.7424 3.07963C15.1223 6.57336 10.7262 12.4705 9.55405 20.771C8.38196 29.0716 10.9733 35.9554 17.3281 41.4225V60C17.3282 61.1152 17.8027 61.9658 18.7515 62.5519C19.7003 63.138 20.6733 63.1815 21.6706 62.6825L32.3281 57.355L42.9881 62.6825C43.9851 63.1802 44.9575 63.1362 45.9054 62.5503C46.8533 61.9644 47.3275 61.1143 47.3281 60V41.4225C49.8677 39.2408 51.836 36.6286 53.2331 33.586C54.6302 30.5434 55.3286 27.348 55.3281 24ZM15.3281 24C15.3281 19.3056 16.9878 15.2986 20.3073 11.9792C23.6268 8.65972 27.6337 7 32.3281 7C37.0225 7 41.0295 8.65972 44.3489 11.9792C47.6684 15.2986 49.3281 19.3056 49.3281 24C49.3281 28.6944 47.6684 32.7014 44.3489 36.0208C41.0295 39.3403 37.0225 41 32.3281 41C27.6357 40.9952 23.6305 39.3337 20.3124 36.0157C16.9944 32.6977 15.3329 28.6924 15.3281 24ZM41.3281 55.1475L33.6681 51.3175C33.2456 51.1061 32.7981 51.0003 32.3256 51.0003C31.8531 51.0003 31.4056 51.1061 30.9831 51.3175L23.3281 55.145V45.165C26.2035 46.3877 29.2035 46.999 32.3281 46.999C35.4527 46.999 38.4527 46.3877 41.3281 45.165V55.1475ZM32.3281 37C35.918 37 38.9821 35.7308 41.5205 33.1924C44.0589 30.654 45.3281 27.5898 45.3281 24C45.3281 20.4101 44.0589 17.346 41.5205 14.8076C38.9821 12.2692 35.918 11 32.3281 11C28.7383 11 25.6741 12.2692 23.1357 14.8076C20.5973 17.346 19.3281 20.4101 19.3281 24C19.3323 27.5881 20.6029 30.6508 23.1401 33.188C25.6773 35.7252 28.74 36.9959 32.3281 37ZM32.3281 17C34.2611 17 35.911 17.6834 37.2779 19.0502C38.6447 20.4171 39.3281 22.067 39.3281 24C39.3281 25.933 38.6447 27.5829 37.2779 28.9497C35.911 30.3166 34.2611 31 32.3281 31C30.3951 31 28.7452 30.3166 27.3784 28.9497C26.0115 27.5829 25.3281 25.933 25.3281 24C25.3281 22.067 26.0115 20.4171 27.3784 19.0502C28.7452 17.6834 30.3951 17 32.3281 17Z" fill="#701DDB"/>
</svg>
