<svg width="32" height="26" viewBox="0 0 32 26" fill="none" xmlns="http://www.w3.org/2000/svg">
<path d="M10.4001 17.8001C10.2806 17.8001 10.1611 17.8176 10.0471 17.8546C9.39908 18.0651 8.71758 18.2001 8.00008 18.2001C7.28258 18.2001 6.60108 18.0651 5.95258 17.8546C5.83858 17.8176 5.71958 17.8001 5.60008 17.8001C2.49708 17.8001 -0.0164192 20.3241 8.07739e-05 23.4311C0.00708077 24.7441 1.08658 25.8001 2.40008 25.8001H13.6001C14.9136 25.8001 15.9931 24.7441 16.0001 23.4311C16.0166 20.3241 13.5031 17.8001 10.4001 17.8001ZM8.00008 16.2001C10.6511 16.2001 12.8001 14.0511 12.8001 11.4001C12.8001 8.74907 10.6511 6.60007 8.00008 6.60007C5.34908 6.60007 3.20008 8.74907 3.20008 11.4001C3.20008 14.0511 5.34908 16.2001 8.00008 16.2001ZM29.6001 0.200073H10.4001C9.07658 0.200073 8.00008 1.31257 8.00008 2.67957V5.00007C9.17108 5.00007 10.2551 5.33907 11.2001 5.89007V3.40007H28.8001V17.8001H25.6001V14.6001H19.2001V17.8001H15.3881C16.3431 18.6346 17.0441 19.7366 17.3726 21.0001H29.6001C30.9236 21.0001 32.0001 19.8876 32.0001 18.5206V2.67957C32.0001 1.31257 30.9236 0.200073 29.6001 0.200073Z" fill="#701DDB"/>
</svg>
