<svg width="20" height="20" viewBox="0 0 20 20" fill="none" xmlns="http://www.w3.org/2000/svg">
<path d="M5 2.5C5 1.46447 5.83947 0.625 6.875 0.625H13.125C14.1605 0.625 15 1.46447 15 2.5V17.5C15 18.5355 14.1605 19.375 13.125 19.375H6.875C5.83947 19.375 5 18.5355 5 17.5V2.5Z" stroke="#4A6CF7" stroke-width="1.25" stroke-linejoin="round"/>
<path d="M6.875 0.625H7.8125C7.89879 0.625 7.97245 0.65551 8.03347 0.716529C8.09449 0.777549 8.125 0.851205 8.125 0.9375C8.125 1.11009 8.18602 1.2574 8.30806 1.37944C8.4301 1.50148 8.57741 1.5625 8.75 1.5625H11.25C11.4226 1.5625 11.5699 1.50148 11.6919 1.37944C11.814 1.2574 11.875 1.11009 11.875 0.9375C11.875 0.851205 11.9055 0.777549 11.9665 0.716529C12.0275 0.65551 12.1012 0.625 12.1875 0.625H13.125" stroke="#4A6CF7" stroke-width="1.25" stroke-linecap="round" stroke-linejoin="round"/>
</svg>
