<svg width="20" height="24" viewBox="0 0 20 24" fill="none" xmlns="http://www.w3.org/2000/svg">
<path d="M10 5.875C5.51992 5.875 1.875 9.51992 1.875 14C1.875 18.4801 5.51992 22.125 10 22.125C14.4801 22.125 18.125 18.4801 18.125 14C18.125 9.51992 14.4801 5.875 10 5.875ZM14.2285 11.277L8.97852 17.527C8.92025 17.5963 8.85021 17.6505 8.76839 17.6894C8.68657 17.7284 8.60036 17.7486 8.50977 17.75H8.49922C8.41064 17.75 8.32589 17.7319 8.24499 17.6959C8.16408 17.6598 8.094 17.6088 8.03477 17.543L5.78477 15.043C5.66442 14.9153 5.60784 14.7639 5.61504 14.5886C5.62223 14.4133 5.69103 14.267 5.82143 14.1496C5.95183 14.0323 6.10457 13.9792 6.27963 13.9905C6.4547 14.0018 6.59938 14.0739 6.71367 14.207L8.48281 16.1727L13.2715 10.473C13.3832 10.3438 13.5243 10.2725 13.6945 10.2589C13.8648 10.2453 14.0154 10.2935 14.1462 10.4033C14.277 10.5132 14.3504 10.6532 14.3664 10.8233C14.3825 10.9933 14.3365 11.1446 14.2285 11.277Z" fill="#4A6CF7"/>
</svg>
