<svg width="48" height="48" viewBox="0 0 48 48" fill="none" xmlns="http://www.w3.org/2000/svg">
<path d="M43.2947 5.04469C43.2784 4.96615 43.2423 4.89814 43.1863 4.84067C43.1304 4.78319 43.0634 4.74527 42.9853 4.72688C37.8872 3.48001 26.1103 7.92282 19.7231 14.3053C19.1539 14.8698 18.6103 15.458 18.0923 16.0697C17.5743 16.6815 17.0839 17.3146 16.6209 17.9691C14.6522 17.7909 12.6834 17.9409 11.0072 18.6722C6.27373 20.7534 4.89654 26.1891 4.51217 28.5225C4.46752 28.7966 4.54043 29.0347 4.73087 29.2368C4.92132 29.4389 5.15466 29.5258 5.43092 29.4975L13.0312 28.6631C13.0339 28.9498 13.0438 29.2361 13.061 29.5223C13.0782 29.8084 13.1026 30.0939 13.1344 30.3788C13.1542 30.5757 13.2068 30.7634 13.2921 30.9419C13.3774 31.1205 13.4905 31.2793 13.6312 31.4184L16.574 34.3613C16.7133 34.5021 16.8723 34.6152 17.051 34.7005C17.2297 34.7859 17.4176 34.8384 17.6147 34.8581C17.8978 34.8897 18.1816 34.9141 18.466 34.9313C18.7504 34.9485 19.0351 34.9585 19.32 34.9613L18.4865 42.555C18.4587 42.8308 18.5456 43.0638 18.7474 43.254C18.9492 43.4441 19.1869 43.517 19.4606 43.4728C21.795 43.0978 27.2419 41.7206 29.3109 36.9881C30.0422 35.31 30.1922 33.3516 30.0234 31.3922C30.6798 30.9297 31.3147 30.4394 31.9283 29.9214C32.5418 29.4034 33.1315 28.8596 33.6975 28.29C40.1081 21.915 44.5228 10.3969 43.2947 5.04469ZM27.9994 20.0316C27.2176 19.25 26.8266 18.3064 26.8265 17.2009C26.8265 16.0954 27.2173 15.1518 27.9989 14.3701C28.7806 13.5883 29.7242 13.1975 30.8297 13.1975C31.9352 13.1975 32.8787 13.5883 33.6604 14.3701C34.4421 15.1518 34.8329 16.0954 34.8328 17.2009C34.8327 18.3064 34.4418 19.25 33.66 20.0316C32.8789 20.8143 31.9355 21.2057 30.8297 21.2057C29.7239 21.2057 28.7804 20.8143 27.9994 20.0316Z" stroke="#4A154B" stroke-width="3" stroke-linejoin="round"/>
<path d="M10.2787 33C9.81146 33.0574 9.3662 33.1892 8.94298 33.3954C8.51975 33.6016 8.14157 33.8711 7.80844 34.2037C6.15656 35.8612 6 42 6 42C6 42 12.1425 41.8434 13.7953 40.1897C14.1293 39.8571 14.3996 39.4789 14.6061 39.0552C14.8126 38.6314 14.9439 38.1855 15 37.7175" stroke="#4A154B" stroke-width="3" stroke-linecap="round" stroke-linejoin="round"/>
</svg>
