<svg width="40" height="40" viewBox="0 0 40 40" fill="none" xmlns="http://www.w3.org/2000/svg">
<path d="M19.6562 0.625C8.95312 0.625 0.28125 9.29688 0.28125 20C0.28125 30.7031 8.95312 39.375 19.6562 39.375C30.3594 39.375 39.0312 30.7031 39.0312 20C39.0312 9.29688 30.3594 0.625 19.6562 0.625ZM26.882 25.0781L25.3195 27.0312C25.1039 27.3008 24.8246 27.4547 24.4815 27.4928C24.1384 27.531 23.8321 27.4422 23.5625 27.2266L18.3281 23.3422C17.9577 23.0456 17.6698 22.6835 17.4643 22.2557C17.2589 21.828 17.1562 21.3769 17.1562 20.9023V8.75C17.1562 8.40482 17.2783 8.11019 17.5224 7.86612C17.7664 7.62204 18.0611 7.5 18.4062 7.5H20.9062C21.2514 7.5 21.5461 7.62204 21.7901 7.86612C22.0342 8.11019 22.1562 8.40482 22.1562 8.75V20L26.6875 23.3203C26.9572 23.5361 27.1111 23.8156 27.149 24.1589C27.187 24.5022 27.098 24.8086 26.882 25.0781Z" fill="#701DDB"/>
</svg>
