<svg width="48" height="38" viewBox="0 0 48 38" fill="none" xmlns="http://www.w3.org/2000/svg">
<path d="M46 4.77779H37.3333V1.81483C37.3333 0.829641 36.4417 0.0370483 35.3333 0.0370483H12.6667C11.5583 0.0370483 10.6667 0.829641 10.6667 1.81483V4.77779H2C0.891667 4.77779 0 5.57038 0 6.55557V10.7037C0 13.3482 1.875 16.0667 5.15833 18.163C7.78333 19.8445 10.975 20.9111 14.325 21.2519C16.9417 25.1111 20 26.7037 20 26.7037V32.037H16C13.0583 32.037 10.6667 33.5704 10.6667 36.1852V37.0741C10.6667 37.563 11.1167 37.963 11.6667 37.963H36.3333C36.8833 37.963 37.3333 37.563 37.3333 37.0741V36.1852C37.3333 33.5704 34.9417 32.037 32 32.037H28V26.7037C28 26.7037 31.0583 25.1111 33.675 21.2519C37.0333 20.9111 40.225 19.8445 42.8417 18.163C46.1167 16.0667 48 13.3482 48 10.7037V6.55557C48 5.57038 47.1083 4.77779 46 4.77779ZM8.275 14.3185C6.24167 13.0148 5.33333 11.563 5.33333 10.7037V9.51853H10.6833C10.7667 11.9333 11.1667 14.0519 11.75 15.9037C10.4917 15.5185 9.31667 14.9852 8.275 14.3185ZM42.6667 10.7037C42.6667 11.8963 41.1917 13.3778 39.725 14.3185C38.6833 14.9852 37.5 15.5185 36.2417 15.9037C36.825 14.0519 37.225 11.9333 37.3083 9.51853H42.6667V10.7037Z" fill="#4A154B"/>
</svg>
