<svg width="21" height="20" viewBox="0 0 21 20" fill="none" xmlns="http://www.w3.org/2000/svg">
<path d="M10.3281 1.875C5.84805 1.875 2.20312 5.51992 2.20312 10C2.20312 14.4801 5.84805 18.125 10.3281 18.125C14.8082 18.125 18.4531 14.4801 18.4531 10C18.4531 5.51992 14.8082 1.875 10.3281 1.875ZM14.5566 7.27695L9.30664 13.527C9.24838 13.5963 9.17834 13.6505 9.09652 13.6894C9.0147 13.7284 8.92849 13.7486 8.83789 13.75H8.82734C8.73876 13.75 8.65402 13.7319 8.57311 13.6959C8.4922 13.6598 8.42213 13.6088 8.36289 13.543L6.11289 11.043C5.99255 10.9153 5.93597 10.7639 5.94316 10.5886C5.95036 10.4133 6.01916 10.267 6.14956 10.1496C6.27996 10.0323 6.43269 9.97924 6.60776 9.9905C6.78283 10.0018 6.92751 10.0739 7.0418 10.207L8.81094 12.1727L13.5996 6.47305C13.7114 6.34384 13.8524 6.27245 14.0227 6.25888C14.193 6.24531 14.3435 6.29347 14.4743 6.40334C14.6051 6.51322 14.6785 6.6532 14.6946 6.82327C14.7106 6.99335 14.6646 7.14458 14.5566 7.27695Z" fill="#FFA41B"/>
</svg>
